<svg width="343" height="125" viewBox="0 0 343 125" fill="none" xmlns="http://www.w3.org/2000/svg">
<path d="M0 43.65C5.59578 43.65 11.0859 43.7381 16.1885 45.856C21.4868 48.0553 25.8834 52.201 30.0664 59.2271C35.4288 68.2345 35.9738 77.5775 37.1514 84.3775C37.7646 87.9185 38.5173 90.8172 39.8945 93.2935C41.2206 95.6779 43.2357 97.8614 46.7002 99.7447C47.8241 100.356 48.6137 100.605 49.1201 100.687C49.5886 100.763 49.7616 100.692 49.7822 100.683C49.8001 100.676 50.3485 100.44 50.9453 98.7037C51.5181 97.0373 51.8847 94.6875 52.0801 91.7593C52.2726 88.8738 52.286 85.6787 52.2637 82.4068C52.2417 79.1927 52.1844 75.8498 52.2549 72.8961C52.3241 69.9961 52.5186 67.085 53.1211 64.7769C53.422 63.6243 53.8991 62.3173 54.7441 61.1968C55.6624 59.9794 57.0752 58.9277 58.9854 58.7154C60.7403 58.5205 62.3162 59.1062 63.5498 59.8052C64.8074 60.5178 66.0582 61.5442 67.3105 62.773C72.263 67.6324 73.908 74.2685 74.2197 80.8814C74.531 87.4867 73.5359 94.751 72.5771 101.433C71.5896 108.316 70.6536 114.521 70.7832 119.686C70.8267 121.419 70.9892 122.899 71.2617 124.162H63.1396C62.9289 122.746 62.8218 121.309 62.7861 119.886C62.6357 113.89 63.7107 106.9 64.6582 100.296C65.6344 93.4926 66.4981 86.9791 66.2285 81.2584C65.9592 75.5452 64.5833 71.3054 61.708 68.4839C61.3277 68.1108 60.9911 67.8057 60.6973 67.5582C60.452 68.8846 60.3082 70.733 60.252 73.0875C60.1853 75.8783 60.2408 79.0079 60.2637 82.3521C60.2861 85.6386 60.2762 89.0884 60.0625 92.2916C59.8517 95.4519 59.4282 98.6352 58.5107 101.304C57.6173 103.904 55.9746 106.806 52.7852 108.098C49.5641 109.402 46.1062 108.527 42.8789 106.773C38.138 104.196 34.9979 100.947 32.9033 97.1812C30.86 93.507 29.9255 89.5364 29.2686 85.7427C27.9057 77.8728 27.576 70.6831 23.1924 63.3199C19.5786 57.2498 16.3463 54.583 13.1221 53.2447C9.70202 51.8251 5.77568 51.65 0 51.65V43.65ZM307.803 2.07672C309.817 0.655614 312.238 -0.208517 314.938 0.0435181C317.587 0.291043 320.005 1.56813 322.159 3.47418C326.214 7.0621 330.094 13.5501 333.927 23.1783L334.298 24.1197L334.339 24.2242L334.374 24.3316C335.058 26.4295 335.554 29.0024 336.022 31.3004C336.518 33.7276 337.013 36.0217 337.698 38.0455C338.393 40.0961 339.168 41.5009 340.006 42.3541C340.712 43.0723 341.551 43.5077 342.935 43.4849L343 47.4654V51.4839C339.389 51.5267 336.482 50.1816 334.3 47.9615C332.238 45.8628 330.98 43.148 330.121 40.6129C329.253 38.0508 328.673 35.292 328.185 32.9C327.68 30.4249 327.287 28.4394 326.794 26.897C322.965 17.0976 319.545 11.8427 316.858 9.46539C315.571 8.32603 314.685 8.05523 314.193 8.00934C313.751 7.96805 313.193 8.06448 312.414 8.61383C310.625 9.87618 308.557 12.9244 306.668 17.7886C304.846 22.482 303.42 28.2604 302.526 34.1929C301.58 40.4762 300.247 46.6457 298.533 51.7584C297.676 54.3146 296.697 56.6898 295.577 58.7144C294.479 60.6992 293.118 62.5821 291.397 63.9117C289.583 65.3141 287.252 66.1652 284.63 65.6558C282.172 65.1784 280.122 63.6283 278.428 61.7076C275.087 57.9204 271.859 51.2367 268.593 41.3755C265.405 31.7503 262.313 27.7911 260.157 26.4312C259.223 25.8418 258.47 25.7402 257.778 25.8316C256.994 25.9354 256.011 26.3328 254.83 27.1851C252.403 28.9366 250.002 31.968 247.907 35.1314C246.89 36.6681 246.001 38.1469 245.257 39.4019C244.586 40.5329 243.87 41.7687 243.365 42.4654C243.39 42.4315 243.247 42.6519 242.869 43.3853C242.537 44.0308 242.116 44.8869 241.607 45.938C240.609 48.0015 239.271 50.82 237.766 53.9019C234.743 60.0893 230.856 67.7223 226.818 74.1422C224.802 77.3479 222.686 80.3542 220.557 82.7574C218.518 85.0581 216.086 87.2547 213.358 88.1998C211.902 88.7046 210.234 88.8945 208.517 88.4175C206.798 87.9401 205.41 86.9002 204.331 85.6002C202.301 83.1542 201.045 79.4089 200.222 74.7681C197.706 60.5905 194.748 53.7487 192.522 50.8091C191.89 49.9744 191.419 49.591 191.152 49.4185L190.321 50.1441H189.355C189.325 50.182 189.29 50.2253 189.252 50.2769C188.791 50.909 188.235 52.0457 187.655 53.773C186.533 57.1172 185.664 61.5813 184.878 66.0357C184.362 86.4515 174.818 101.845 164.632 111.282C159.531 116.008 154.15 119.355 149.475 121.084C147.153 121.942 144.816 122.471 142.672 122.448C140.578 122.425 138.066 121.848 136.323 119.801C133.953 117.019 131.807 113.182 129.853 109.162C127.875 105.094 125.953 100.538 124.114 96.1978C122.252 91.8035 120.479 87.6401 118.733 84.1529C117.064 80.8173 115.615 78.5139 114.411 77.2476C111.607 75.5943 109.695 75.4833 108.351 75.8297C106.841 76.2187 105.174 77.4056 103.382 79.8619C99.7086 84.8974 96.8604 93.3493 94.1572 102.754C92.0648 110.035 90.0545 117.917 87.793 124.162H79.2129C81.7088 118.254 83.8401 109.69 86.4688 100.544C89.1073 91.3642 92.2758 81.5122 96.9189 75.147C99.2854 71.903 102.351 69.1143 106.354 68.0826C110.335 67.0563 114.466 67.9625 118.6 70.4283L118.999 70.6714L119.346 70.8863L119.643 71.1675C122 73.4038 124.061 76.9235 125.888 80.5728C127.767 84.3281 129.641 88.7345 131.48 93.0767C133.343 97.473 135.179 101.821 137.048 105.664C138.873 109.418 140.605 112.418 142.239 114.403C142.339 114.422 142.505 114.446 142.758 114.449C143.603 114.458 144.931 114.234 146.7 113.58C150.207 112.283 154.71 109.57 159.195 105.414C168.129 97.1367 176.518 83.5927 176.889 65.5464L176.896 65.2388L176.948 64.9361C177.736 60.4559 178.705 55.2974 180.071 51.2281C180.748 49.2131 181.614 47.1715 182.789 45.5611C183.733 44.2676 185.223 42.8042 187.325 42.314C188.781 41.4538 190.613 41.0304 192.628 41.4732C195.074 42.0109 197.161 43.6833 198.9 45.98C202.325 50.5028 205.537 58.9319 208.099 73.3707C208.862 77.6728 209.83 79.7 210.487 80.4918C210.553 80.5713 210.607 80.6277 210.648 80.6666C210.674 80.6594 210.705 80.6532 210.739 80.6412C211.454 80.3935 212.755 79.5 214.568 77.4527C216.291 75.5077 218.146 72.9064 220.047 69.8834C223.844 63.8455 227.576 56.5342 230.578 50.3902C232.085 47.3066 233.361 44.613 234.405 42.4547C234.918 41.395 235.375 40.4617 235.757 39.7213C236.092 39.0704 236.499 38.3066 236.888 37.7701C237.11 37.4635 237.543 36.7242 238.376 35.3199C239.135 34.0396 240.106 32.4223 241.237 30.7144C243.44 27.3884 246.494 23.3345 250.149 20.6968C252.009 19.3548 254.225 18.2323 256.729 17.9009C259.327 17.5574 261.954 18.1065 264.425 19.6646C269.079 22.5999 272.896 28.9228 276.188 38.8599C279.401 48.5615 282.223 53.917 284.427 56.4156C285.454 57.5801 286.045 57.7736 286.145 57.7984C286.184 57.7847 286.305 57.7366 286.506 57.5816C287.017 57.187 287.742 56.35 288.577 54.8414C289.39 53.3724 290.189 51.4792 290.948 49.2154C292.466 44.688 293.712 39.0072 294.616 33.0015C295.574 26.6449 297.123 20.2678 299.21 14.8931C301.23 9.68929 304.005 4.75565 307.803 2.07672Z" fill="#292323"/>
</svg>
