<svg width="22" height="22" viewBox="0 0 22 22" fill="none" xmlns="http://www.w3.org/2000/svg">
<path fill-rule="evenodd" clip-rule="evenodd" d="M8.79302 2.93362C8.56978 3.12386 8.45816 3.21899 8.33895 3.29888C8.06569 3.48204 7.75881 3.60915 7.43607 3.67287C7.29528 3.70067 7.14909 3.71233 6.85672 3.73566C6.12212 3.79429 5.75482 3.8236 5.44838 3.93183C4.73961 4.18218 4.18212 4.73967 3.93177 5.44844C3.82353 5.75488 3.79422 6.12218 3.7356 6.85678C3.71227 7.14916 3.7006 7.29534 3.67281 7.43613C3.60909 7.75887 3.48198 8.06575 3.29882 8.33901C3.21892 8.45822 3.1238 8.56984 2.93356 8.79308C2.45558 9.35396 2.21658 9.63442 2.07643 9.92764C1.75227 10.6058 1.75227 11.3943 2.07643 12.0724C2.21658 12.3657 2.45557 12.6461 2.93356 13.207C3.12378 13.4302 3.21893 13.5419 3.29882 13.6611C3.48198 13.9343 3.60909 14.2412 3.67281 14.5639C3.7006 14.7047 3.71227 14.8509 3.7356 15.1433C3.79422 15.8779 3.82353 16.2452 3.93177 16.5516C4.18212 17.2604 4.73961 17.8179 5.44838 18.0682C5.75482 18.1765 6.12212 18.2058 6.85672 18.2644C7.14909 18.2878 7.29528 18.2994 7.43607 18.3272C7.75881 18.3909 8.06569 18.518 8.33895 18.7012C8.45816 18.7811 8.56978 18.8762 8.79302 19.0665C9.35391 19.5444 9.63436 19.7834 9.92758 19.9236C10.6058 20.2477 11.3942 20.2477 12.0724 19.9236C12.3656 19.7834 12.646 19.5444 13.2069 19.0665C13.4302 18.8762 13.5418 18.7811 13.661 18.7012C13.9343 18.518 14.2412 18.3909 14.5639 18.3272C14.7047 18.2994 14.8509 18.2878 15.1432 18.2644C15.8778 18.2058 16.2451 18.1765 16.5516 18.0682C17.2603 17.8179 17.8178 17.2604 18.0682 16.5516C18.1764 16.2452 18.2057 15.8779 18.2644 15.1433C18.2877 14.8509 18.2994 14.7047 18.3272 14.5639C18.3909 14.2412 18.518 13.9343 18.7011 13.6611C18.781 13.5419 18.8762 13.4302 19.0664 13.207C19.5444 12.6461 19.7834 12.3657 19.9235 12.0724C20.2477 11.3943 20.2477 10.6058 19.9235 9.92764C19.7834 9.63442 19.5444 9.35397 19.0664 8.79308C18.8762 8.56984 18.781 8.45822 18.7011 8.33901C18.518 8.06575 18.3909 7.75887 18.3272 7.43613C18.2994 7.29534 18.2877 7.14916 18.2644 6.85678C18.2057 6.12218 18.1764 5.75488 18.0682 5.44844C17.8178 4.73967 17.2603 4.18218 16.5516 3.93183C16.2451 3.8236 15.8778 3.79429 15.1432 3.73566C14.8509 3.71233 14.7047 3.70067 14.5639 3.67287C14.2412 3.60915 13.9343 3.48204 13.661 3.29888C13.5418 3.21899 13.4302 3.12386 13.2069 2.93362C12.646 2.45563 12.3656 2.21664 12.0724 2.07649C11.3942 1.75234 10.6058 1.75234 9.92758 2.07649C9.63436 2.21664 9.3539 2.45564 8.79302 2.93362ZM14.5117 7.48883C14.803 7.78018 14.803 8.25254 14.5117 8.54389L8.54334 14.5122C8.252 14.8035 7.77963 14.8035 7.48829 14.5122C7.19694 14.2209 7.19694 13.7485 7.48829 13.4571L13.4566 7.48883C13.7479 7.19749 14.2203 7.19749 14.5117 7.48883ZM14.4815 13.4873C14.4815 14.0367 14.0361 14.482 13.4868 14.482C12.9374 14.482 12.492 14.0367 12.492 13.4873C12.492 12.9379 12.9374 12.4926 13.4868 12.4926C14.0361 12.4926 14.4815 12.9379 14.4815 13.4873ZM8.51317 9.50844C9.06254 9.50844 9.50789 9.06309 9.50789 8.51372C9.50789 7.96435 9.06254 7.519 8.51317 7.519C7.96381 7.519 7.51846 7.96435 7.51846 8.51372C7.51846 9.06309 7.96381 9.50844 8.51317 9.50844Z" fill="#0E172E"/>
</svg>
