<svg width="22" height="22" viewBox="0 0 22 22" fill="none" xmlns="http://www.w3.org/2000/svg">
<path fill-rule="evenodd" clip-rule="evenodd" d="M2.30928 7.17089C1.83334 8.04038 1.83334 9.08924 1.83334 11.187V12.5812C1.83334 16.1571 1.83334 17.945 2.90729 19.0558C3.98123 20.1667 5.70971 20.1667 9.16668 20.1667H12.8333C16.2903 20.1667 18.0188 20.1667 19.0927 19.0558C20.1667 17.945 20.1667 16.1571 20.1667 12.5812V11.187C20.1667 9.08924 20.1667 8.04038 19.6907 7.17089C19.2148 6.3014 18.3453 5.76176 16.6063 4.68249L14.773 3.54467C12.9347 2.40381 12.0156 1.83337 11 1.83337C9.9844 1.83337 9.06528 2.40381 7.22704 3.54467L5.39371 4.68249C3.65471 5.76176 2.78521 6.3014 2.30928 7.17089ZM8.25001 15.8125C7.87031 15.8125 7.56251 16.1203 7.56251 16.5C7.56251 16.8797 7.87031 17.1875 8.25001 17.1875H13.75C14.1297 17.1875 14.4375 16.8797 14.4375 16.5C14.4375 16.1203 14.1297 15.8125 13.75 15.8125H8.25001Z" fill="#0E172E"/>
</svg>
