<svg width="22" height="22" viewBox="0 0 22 22" fill="none" xmlns="http://www.w3.org/2000/svg">
<path d="M10.3125 1.90063C9.75675 2.00431 9.10396 2.22776 8.10125 2.57099L7.57617 2.75073C4.82013 3.69413 3.44211 4.16583 3.09606 4.65888C2.75756 5.14116 2.75017 6.55393 2.75 9.35864L10.3125 6.83781V1.90063Z" fill="#0E172E"/>
<path d="M10.3125 8.28719L2.75 10.808V10.9921C2.75 16.1603 6.63571 18.6684 9.07368 19.7333C9.54184 19.9378 9.8443 20.07 10.3125 20.1297V8.28719Z" fill="#0E172E"/>
<path d="M11.6875 20.1297V8.28719L19.25 10.808V10.9921C19.25 16.1603 15.3643 18.6684 12.9263 19.7333C12.4582 19.9378 12.1557 20.07 11.6875 20.1297Z" fill="#0E172E"/>
<path d="M11.6875 6.83781V1.90063C12.2432 2.00431 12.896 2.22776 13.8988 2.57099L14.4238 2.75073C17.1799 3.69413 18.5579 4.16583 18.9039 4.65888C19.2424 5.14116 19.2498 6.55393 19.25 9.35864L11.6875 6.83781Z" fill="#0E172E"/>
</svg>
