<svg width="47" height="47" viewBox="0 0 47 47" fill="none" xmlns="http://www.w3.org/2000/svg">
<path fill-rule="evenodd" clip-rule="evenodd" d="M23.5001 3.91675C16.1147 3.91675 12.4221 3.91675 10.1277 6.21108C8.04585 8.29297 7.85309 11.5262 7.83524 17.6251H5.87508C4.79352 17.6251 3.91675 18.5019 3.91675 19.5834V21.5417C3.91675 22.1581 4.20696 22.7386 4.70008 23.1084L7.83341 25.4584C7.85126 31.5573 8.04585 34.7905 10.1277 36.8724C10.602 37.3467 11.136 37.7229 11.7501 38.0214V41.1249C11.7501 42.2065 12.6269 43.0832 13.7084 43.0832H16.6459C17.7275 43.0832 18.6042 42.2065 18.6042 41.1249V39.1306C20.0281 39.1667 21.648 39.1667 23.5001 39.1667C25.3522 39.1667 26.9721 39.1667 28.3959 39.1306V41.1249C28.3959 42.2065 29.2727 43.0832 30.3542 43.0832H33.2917C34.3733 43.0832 35.2501 42.2065 35.2501 41.1249V38.0214C35.8641 37.7229 36.3981 37.3467 36.8724 36.8724C38.9543 34.7905 39.1489 31.5573 39.1667 25.4584L42.3001 23.1084C42.7932 22.7386 43.0834 22.1581 43.0834 21.5417V19.5834C43.0834 18.5019 42.2066 17.6251 41.1251 17.6251H39.1649C39.1471 11.5262 38.9543 8.29297 36.8724 6.21108C34.5781 3.91675 30.8854 3.91675 23.5001 3.91675ZM10.7709 18.6042C10.7709 21.3737 10.7709 22.7585 11.6313 23.6189C12.4917 24.4792 13.8764 24.4792 16.6459 24.4792H23.5001H30.3542C33.1238 24.4792 34.5085 24.4792 35.3689 23.6189C36.2293 22.7585 36.2292 21.3737 36.2292 18.6042V13.7084C36.2292 10.9389 36.2293 9.55416 35.3689 8.69379C34.5085 7.83341 33.1238 7.83341 30.3542 7.83341H23.5001H16.6459C13.8764 7.83341 12.4917 7.83341 11.6313 8.69379C10.7709 9.55416 10.7709 10.9389 10.7709 13.7084V18.6042ZM12.2397 31.3334C12.2397 30.5222 12.8972 29.8647 13.7084 29.8647H16.6459C17.4571 29.8647 18.1147 30.5222 18.1147 31.3334C18.1147 32.1446 17.4571 32.8022 16.6459 32.8022H13.7084C12.8972 32.8022 12.2397 32.1446 12.2397 31.3334ZM34.7605 31.3334C34.7605 30.5222 34.1029 29.8647 33.2917 29.8647H30.3542C29.5431 29.8647 28.8855 30.5222 28.8855 31.3334C28.8855 32.1446 29.5431 32.8022 30.3542 32.8022H33.2917C34.1029 32.8022 34.7605 32.1446 34.7605 31.3334Z" fill="white"/>
</svg>
