<svg width="47" height="47" viewBox="0 0 47 47" fill="none" xmlns="http://www.w3.org/2000/svg">
<path d="M22.0314 11.75H17.6251C13.9324 11.75 12.0861 11.75 10.9389 12.8972C9.79175 14.0443 9.79175 15.8907 9.79175 19.5833L9.79185 31.8229H37.2083L37.2084 19.5833C37.2084 15.8907 37.2084 14.0443 36.0612 12.8972C34.9141 11.75 33.0678 11.75 29.3751 11.75H24.9689V21.4879L26.3016 19.933C26.8295 19.3172 27.7567 19.2458 28.3726 19.7737C28.9885 20.3016 29.0598 21.2289 28.5319 21.8447L24.6153 26.4142C24.3362 26.7397 23.9289 26.9271 23.5001 26.9271C23.0713 26.9271 22.664 26.7397 22.385 26.4142L18.4683 21.8447C17.9404 21.2289 18.0117 20.3016 18.6276 19.7737C19.2435 19.2458 20.1707 19.3172 20.6986 19.933L22.0314 21.4879V11.75Z" fill="white"/>
<path d="M9.85167 34.7604H37.1485C37.0481 36.3087 36.7796 37.3012 36.0612 38.0195C34.9141 39.1667 33.0677 39.1667 29.3751 39.1667H17.6251C13.9324 39.1667 12.0861 39.1667 10.9389 38.0195C10.2206 37.3012 9.95206 36.3087 9.85167 34.7604Z" fill="white"/>
<path d="M11.5325 5.875H35.4677C39.6737 5.875 43.0834 9.39995 43.0834 13.7482C43.0834 16.2732 41.9337 18.5206 40.1459 19.9613L40.1459 19.4081C40.1461 17.7129 40.1463 16.1586 39.9763 14.8943C39.7891 13.502 39.3487 12.0304 38.1383 10.8201C36.928 9.60973 35.4564 9.16931 34.0641 8.98212C32.7998 8.81213 31.2455 8.81231 29.5503 8.81251H17.4498C15.7546 8.81231 14.2003 8.81213 12.936 8.98212C11.5437 9.16931 10.0721 9.60972 8.86174 10.8201C7.6514 12.0304 7.21098 13.502 7.02379 14.8943C6.8538 16.1586 6.85399 17.7129 6.85419 19.4081L6.8542 19.9612C5.06646 18.5205 3.91675 16.2731 3.91675 13.7482C3.91675 9.39995 7.32643 5.875 11.5325 5.875Z" fill="white"/>
</svg>
