<svg width="47" height="47" viewBox="0 0 47 47" fill="none" xmlns="http://www.w3.org/2000/svg">
<path fill-rule="evenodd" clip-rule="evenodd" d="M7.83325 9.79154V37.2082C7.83325 40.4529 10.4636 43.0832 13.7083 43.0832H33.2916C36.5363 43.0832 39.1666 40.4529 39.1666 37.2082V17.6249C39.1666 14.3802 36.5363 11.7499 33.2916 11.7499H9.79159C8.71003 11.7499 7.83325 10.8731 7.83325 9.79154ZM14.1978 23.4999C14.1978 22.6887 14.8554 22.0311 15.6666 22.0311H31.3333C32.1444 22.0311 32.802 22.6887 32.802 23.4999C32.802 24.311 32.1444 24.9686 31.3333 24.9686H15.6666C14.8554 24.9686 14.1978 24.311 14.1978 23.4999ZM14.1978 30.354C14.1978 29.5429 14.8554 28.8853 15.6666 28.8853H26.4374C27.2486 28.8853 27.9062 29.5429 27.9062 30.354C27.9062 31.1652 27.2486 31.8228 26.4374 31.8228H15.6666C14.8554 31.8228 14.1978 31.1652 14.1978 30.354Z" fill="white"/>
<path d="M8.63379 8.00378C9.31623 8.30984 9.79159 8.99518 9.79159 9.79154H33.2916C33.9678 9.79154 34.624 9.87723 35.2499 10.0383V8.43254C35.2499 6.04905 33.1389 4.21816 30.7794 4.55524L9.63412 7.57598C9.2572 7.62983 8.91563 7.78179 8.63379 8.00378Z" fill="white"/>
</svg>
