<svg width="47" height="47" viewBox="0 0 47 47" fill="none" xmlns="http://www.w3.org/2000/svg">
<path fill-rule="evenodd" clip-rule="evenodd" d="M17.5501 37.9343C11.7881 33.2356 3.91675 25.4738 3.91675 18.135C3.91675 6.55943 14.6879 1.29766 23.5001 10.7684C32.3123 1.29766 43.0834 6.55907 43.0834 18.135C43.0834 25.4739 35.2121 33.2357 29.45 37.9344C26.8416 40.0615 25.5373 41.125 23.5001 41.125C21.4629 41.125 20.1586 40.0614 17.5501 37.9343ZM19.7659 21.0448C19.9412 20.7943 20.0868 20.5864 20.2165 20.4084C20.3262 20.5994 20.4486 20.8217 20.5959 21.0896L23.9452 27.1792C24.2704 27.7708 24.5893 28.351 24.9095 28.772C25.2521 29.2225 25.8546 29.8399 26.8202 29.858C27.7857 29.8762 28.411 29.2819 28.7703 28.8445C29.1061 28.4358 29.4466 27.8681 29.7938 27.2891L29.9022 27.1083C30.3347 26.3876 30.6069 25.937 30.8478 25.6116C31.0699 25.3117 31.1981 25.2138 31.2938 25.1596C31.3895 25.1054 31.5394 25.0458 31.9107 25.0097C32.3138 24.9706 32.8401 24.969 33.6806 24.969H35.2501C36.0612 24.969 36.7188 24.3114 36.7188 23.5002C36.7188 22.6891 36.0612 22.0315 35.2501 22.0315L33.6173 22.0315C32.8591 22.0314 32.1886 22.0314 31.6266 22.086C31.0172 22.1452 30.4242 22.2763 29.8465 22.6034C29.2687 22.9305 28.8513 23.3716 28.487 23.8636C28.151 24.3175 27.806 24.8924 27.416 25.5426L27.3229 25.6977C27.1531 25.9808 27.0115 26.2166 26.8848 26.419C26.7658 26.212 26.6332 25.971 26.4741 25.6818L23.1264 19.5951C22.8246 19.046 22.5239 18.4989 22.2189 18.0979C21.8857 17.6598 21.3144 17.0805 20.3988 17.031C19.4833 16.9816 18.8529 17.496 18.4745 17.8957C18.128 18.2616 17.7702 18.7731 17.411 19.2865L16.8051 20.152C16.3603 20.7875 16.0814 21.1835 15.84 21.469C15.6178 21.7319 15.4943 21.818 15.4031 21.8655C15.3119 21.9129 15.1706 21.9648 14.8278 21.9961C14.4554 22.0301 13.9711 22.0315 13.1954 22.0315H11.7501C10.9389 22.0315 10.2813 22.6891 10.2813 23.5002C10.2813 24.3114 10.9389 24.969 11.7501 24.969L13.2543 24.969C13.9534 24.969 14.5731 24.969 15.0949 24.9214C15.661 24.8697 16.2132 24.7555 16.7597 24.471C17.3062 24.1864 17.7164 23.7996 18.0833 23.3655C18.4217 22.9653 18.777 22.4576 19.1779 21.8848L19.7659 21.0448Z" fill="white"/>
</svg>
