<svg width="22" height="22" viewBox="0 0 22 22" fill="none" xmlns="http://www.w3.org/2000/svg">
<path d="M8.25001 15.8125C7.87032 15.8125 7.56251 16.1203 7.56251 16.5C7.56251 16.8797 7.87032 17.1875 8.25001 17.1875H13.75C14.1297 17.1875 14.4375 16.8797 14.4375 16.5C14.4375 16.1203 14.1297 15.8125 13.75 15.8125H8.25001Z" fill="#0E172E"/>
<path fill-rule="evenodd" clip-rule="evenodd" d="M11 1.14587C10.3509 1.14587 9.76116 1.33179 9.12135 1.64293C8.50287 1.94369 7.7884 2.38712 6.89596 2.941L5.0016 4.1167C4.15717 4.64077 3.481 5.06041 2.95984 5.45953C2.42015 5.87284 2.00563 6.29377 1.70621 6.84079C1.40742 7.38665 1.27286 7.96747 1.20835 8.65402C1.14583 9.31937 1.14584 10.133 1.14584 11.1533V12.6316C1.14583 14.3768 1.14582 15.7544 1.28582 16.8315C1.42943 17.9364 1.73119 18.8284 2.413 19.5337C3.09796 20.2422 3.9696 20.5587 5.04865 20.7088C6.09446 20.8542 7.43011 20.8542 9.11337 20.8542H12.8866C14.5699 20.8542 15.9056 20.8542 16.9514 20.7088C18.0304 20.5587 18.9021 20.2422 19.587 19.5337C20.2688 18.8284 20.5706 17.9364 20.7142 16.8315C20.8542 15.7544 20.8542 14.3768 20.8542 12.6316V11.1533C20.8542 10.133 20.8542 9.31935 20.7917 8.65402C20.7272 7.96747 20.5926 7.38665 20.2938 6.84079C19.9944 6.29377 19.5799 5.87284 19.0402 5.45953C18.519 5.06041 17.8429 4.64077 16.9984 4.11671L15.104 2.941C14.2116 2.38712 13.4971 1.94369 12.8787 1.64293C12.2389 1.33179 11.6491 1.14587 11 1.14587ZM7.58958 4.12882C8.52069 3.55094 9.17538 3.14561 9.72267 2.87947C10.2559 2.62017 10.6335 2.52087 11 2.52087C11.3665 2.52087 11.7441 2.62017 12.2773 2.87947C12.8246 3.14561 13.4793 3.55094 14.4104 4.12881L16.2438 5.26663C17.1245 5.81326 17.7429 6.19794 18.2042 6.55118C18.653 6.89488 18.9112 7.17851 19.0877 7.50099C19.2648 7.82461 19.3682 8.20297 19.4227 8.78266C19.4785 9.37625 19.4792 10.1254 19.4792 11.187V12.5812C19.4792 14.388 19.4778 15.6761 19.3507 16.6543C19.2258 17.615 18.9906 18.1724 18.5985 18.578C18.2095 18.9804 17.6799 19.2192 16.762 19.3469C15.8218 19.4776 14.5819 19.4792 12.8333 19.4792H9.16668C7.41811 19.4792 6.17819 19.4776 5.23805 19.3469C4.32013 19.2192 3.79055 18.9804 3.40157 18.578C3.00944 18.1724 2.77422 17.615 2.64935 16.6543C2.52221 15.6761 2.52084 14.388 2.52084 12.5812V11.187C2.52084 10.1254 2.52154 9.37625 2.57732 8.78266C2.63179 8.20297 2.7352 7.82461 2.91234 7.50099C3.08886 7.17851 3.34706 6.89488 3.79585 6.55118C4.2571 6.19794 4.87548 5.81326 5.75624 5.26663L7.58958 4.12882Z" fill="#0E172E"/>
</svg>
