<svg width="114" height="36" viewBox="0 0 114 36" fill="none" xmlns="http://www.w3.org/2000/svg">
<path d="M0 35.5229V30.9253C0.804641 30.9542 1.47997 30.9108 2.02597 30.7952C2.60072 30.6506 3.07488 30.347 3.44846 29.8843C3.85078 29.4217 4.18126 28.7133 4.4399 27.759C4.69853 26.7759 4.91406 25.4602 5.08648 23.812C5.25891 22.1639 5.4457 20.0675 5.64686 17.5229L6.76761 0.390362H23.7513V35.5229H17.4147V5.20482H12.4145L11.6386 18.3036C11.4661 20.8771 11.265 23.147 11.0351 25.1133C10.8339 27.0795 10.5034 28.7566 10.0436 30.1446C9.61259 31.5036 8.99474 32.6024 8.1901 33.441C7.38546 34.2795 6.32218 34.8723 5.00027 35.2193C3.67836 35.5373 2.0116 35.6386 0 35.5229Z" fill="#0E172E"/>
<path d="M26.4289 35.5229L33.412 0.390362H40.2228L47.2059 35.5229H41.3004L39.921 27.412H33.8431L32.4206 35.5229H26.4289ZM34.4897 23.3349H39.2313L36.8605 8.58795L34.4897 23.3349Z" fill="#0E172E"/>
<path d="M59.1661 36C56.6085 36 54.5969 35.494 53.1313 34.4819C51.6944 33.4699 50.6886 32.0964 50.1138 30.3614C49.5391 28.5976 49.2517 26.5735 49.2517 24.2892V11.7542C49.2517 9.35422 49.5391 7.27229 50.1138 5.50843C50.6886 3.74458 51.6944 2.38554 53.1313 1.43133C54.5969 0.477109 56.6085 0 59.1661 0C61.58 0 63.4623 0.419278 64.8129 1.25783C66.1923 2.06747 67.1694 3.23855 67.7441 4.77108C68.3189 6.30362 68.6062 8.08193 68.6062 10.106V13.0554H62.4852V10.0193C62.4852 9.03615 62.4277 8.13976 62.3128 7.33012C62.2266 6.52048 61.9536 5.88434 61.4938 5.42169C61.0627 4.93012 60.3012 4.68434 59.2092 4.68434C58.1172 4.68434 57.3125 4.94458 56.7952 5.46506C56.3067 5.95663 55.9906 6.63614 55.8469 7.50361C55.7032 8.34217 55.6314 9.29638 55.6314 10.3663V25.6337C55.6314 26.906 55.732 27.9614 55.9331 28.8C56.1343 29.6096 56.4935 30.2313 57.0108 30.6651C57.5568 31.0699 58.2896 31.2723 59.2092 31.2723C60.2724 31.2723 61.0196 31.0265 61.4507 30.5349C61.9105 30.0145 62.1978 29.3349 62.3128 28.4964C62.4277 27.6578 62.4852 26.7181 62.4852 25.6771V22.5108H68.6062V25.3301C68.6062 27.412 68.3332 29.2627 67.7872 30.8819C67.2412 32.4723 66.2785 33.7301 64.8991 34.6554C63.5485 35.5518 61.6375 36 59.1661 36Z" fill="#0E172E"/>
<path d="M81.4966 36C78.9389 36 76.9273 35.494 75.4617 34.4819C74.0249 33.4699 73.0191 32.0964 72.4443 30.3614C71.8696 28.5976 71.5822 26.5735 71.5822 24.2892V11.7542C71.5822 9.35422 71.8696 7.27229 72.4443 5.50843C73.0191 3.74458 74.0249 2.38554 75.4617 1.43133C76.9273 0.477109 78.9389 0 81.4966 0C83.9105 0 85.7928 0.419278 87.1434 1.25783C88.5228 2.06747 89.4999 3.23855 90.0746 4.77108C90.6494 6.30362 90.9367 8.08193 90.9367 10.106V13.0554H84.8157V10.0193C84.8157 9.03615 84.7582 8.13976 84.6433 7.33012C84.5571 6.52048 84.2841 5.88434 83.8243 5.42169C83.3932 4.93012 82.6317 4.68434 81.5397 4.68434C80.4476 4.68434 79.643 4.94458 79.1257 5.46506C78.6372 5.95663 78.3211 6.63614 78.1774 7.50361C78.0337 8.34217 77.9619 9.29638 77.9619 10.3663V25.6337C77.9619 26.906 78.0625 27.9614 78.2636 28.8C78.4648 29.6096 78.824 30.2313 79.3413 30.6651C79.8873 31.0699 80.6201 31.2723 81.5397 31.2723C82.6029 31.2723 83.3501 31.0265 83.7812 30.5349C84.241 30.0145 84.5283 29.3349 84.6433 28.4964C84.7582 27.6578 84.8157 26.7181 84.8157 25.6771V22.5108H90.9367V25.3301C90.9367 27.412 90.6637 29.2627 90.1177 30.8819C89.5717 32.4723 88.609 33.7301 87.2296 34.6554C85.879 35.5518 83.9679 36 81.4966 36Z" fill="#0E172E"/>
<path d="M103.913 36C101.442 36 99.4733 35.5373 98.0077 34.612C96.5421 33.6867 95.4932 32.3566 94.861 30.6217C94.2288 28.8867 93.9127 26.8337 93.9127 24.4626V11.3205C93.9127 8.9494 94.2288 6.9253 94.861 5.24819C95.4932 3.54217 96.5421 2.24096 98.0077 1.34458C99.4733 0.448193 101.442 0 103.913 0C106.442 0 108.425 0.448193 109.862 1.34458C111.327 2.24096 112.376 3.54217 113.009 5.24819C113.67 6.9253 114 8.9494 114 11.3205V24.506C114 26.8482 113.67 28.8867 113.009 30.6217C112.376 32.3277 111.327 33.6578 109.862 34.612C108.425 35.5373 106.442 36 103.913 36ZM103.913 31.2723C104.977 31.2723 105.752 31.041 106.241 30.5783C106.758 30.1157 107.103 29.4795 107.275 28.6699C107.448 27.8602 107.534 26.9783 107.534 26.0241V9.84578C107.534 8.86265 107.448 7.98072 107.275 7.2C107.103 6.41928 106.758 5.81205 106.241 5.37831C105.752 4.91566 104.977 4.68434 103.913 4.68434C102.907 4.68434 102.146 4.91566 101.629 5.37831C101.111 5.81205 100.767 6.41928 100.594 7.2C100.422 7.98072 100.335 8.86265 100.335 9.84578V26.0241C100.335 26.9783 100.407 27.8602 100.551 28.6699C100.723 29.4795 101.068 30.1157 101.586 30.5783C102.103 31.041 102.879 31.2723 103.913 31.2723Z" fill="#0E172E"/>
</svg>
