<svg width="32" height="32" viewBox="0 0 32 32" fill="none" xmlns="http://www.w3.org/2000/svg">
<path d="M11.0479 6.29167C12.0611 5.81719 13.4429 5.95133 15.3063 7.22396C16.9273 8.33117 18.627 10.13 20.2083 12.3667C17.7578 17.2408 15.8174 22.879 15.5229 27.4667C15.4233 29.0184 15.5032 30.584 15.901 32H10.6667C9.35344 32 8.0962 31.7612 6.93438 31.3271C6.95774 31.3358 6.98072 31.3456 7.00417 31.3542C6.99276 27.538 7.03852 23.1468 7.3625 19.0229C7.62812 15.642 8.07188 12.5601 8.77708 10.1979C9.52571 7.69044 10.3941 6.59788 11.0479 6.29167Z" fill="#232729"/>
<path d="M22.699 16.4542C24.5653 20.0113 25.8691 23.8424 26.1969 26.9958C26.3723 28.6838 26.2506 30.0109 25.9219 30.9635C25.9865 30.9327 26.0496 30.8988 26.1135 30.8667C24.6752 31.5893 23.0527 32 21.3333 32H20.2281C19.6967 31.2095 19.3806 29.811 19.5146 27.7229C19.7217 24.4968 20.9488 20.4014 22.699 16.4542Z" fill="#232729"/>
<path d="M4.53646 30.0594C1.7939 28.1291 1.05241e-07 24.9419 0 21.3333V10.6667C0 4.77563 4.77563 1.71802e-07 10.6667 0H21.3333C27.2244 0 32 4.77563 32 10.6667V21.3333C32 23.6171 31.2795 25.7314 30.0573 27.4667C30.1159 27.3834 30.1739 27.2996 30.2302 27.2146C30.2151 27.004 30.1979 26.793 30.176 26.5823C29.7025 22.0273 27.61 16.6472 24.851 12.15C26.563 9.09839 28.4096 6.58489 30.024 5.11667L30.0417 5.10104L30.0573 5.08542L30.2844 4.86875C29.5518 3.74006 28.6125 2.7593 27.5188 1.97917L27.3115 2.17708C25.6234 3.71813 23.9066 5.96975 22.3344 8.53542C20.8632 6.68307 19.2481 5.07321 17.5625 3.92188C15.1456 2.27108 12.2008 1.33515 9.35104 2.66979C7.00362 3.76944 5.72618 6.43685 4.94479 9.05417C4.11994 11.8171 3.6487 15.2256 3.375 18.7094C3.11401 22.0314 3.02801 25.5309 3.00729 28.7521C3.47427 29.2341 3.9866 29.6716 4.53646 30.0594Z" fill="#232729"/>
</svg>
