<svg width="20" height="20" viewBox="0 0 20 20" fill="none" xmlns="http://www.w3.org/2000/svg">
<path d="M11.5 9.25H8.75V6.2C8.75 6.10303 8.75006 6.04531 8.75126 6.0018C8.75201 5.97419 8.75305 5.96219 8.75334 5.9593C8.77077 5.85362 8.85362 5.77077 8.9593 5.75334C8.96219 5.75305 8.97419 5.75201 9.0018 5.75126C9.04531 5.75007 9.10303 5.75 9.2 5.75H11.5C12.4665 5.75 13.25 6.5335 13.25 7.5C13.25 8.4665 12.4665 9.25 11.5 9.25Z" fill="#1A73E8"/>
<path fill-rule="evenodd" clip-rule="evenodd" d="M20 10C20 15.5228 15.5228 20 10 20C4.47715 20 0 15.5228 0 10C0 4.47715 4.47715 0 10 0C15.5228 0 20 4.47715 20 10ZM6.25 12C6.25 11.5858 6.58579 11.25 7 11.25H7.25V10.75H7C6.58579 10.75 6.25 10.4142 6.25 10C6.25 9.58579 6.58579 9.25 7 9.25H7.25L7.24997 6.16151C7.24979 6.01598 7.24961 5.86471 7.27155 5.72624C7.39015 4.97743 7.97743 4.39015 8.72624 4.27155C8.86471 4.24961 9.01597 4.24979 9.1615 4.24997L11.5 4.25C13.2949 4.25 14.75 5.70507 14.75 7.5C14.75 9.29493 13.2949 10.75 11.5 10.75H8.75V11.25H10C10.4142 11.25 10.75 11.5858 10.75 12C10.75 12.4142 10.4142 12.75 10 12.75H8.75V15C8.75 15.4142 8.41421 15.75 8 15.75C7.58579 15.75 7.25 15.4142 7.25 15V12.75H7C6.58579 12.75 6.25 12.4142 6.25 12Z" fill="#1A73E8"/>
</svg>
