<svg width="22" height="22" viewBox="0 0 22 22" fill="none" xmlns="http://www.w3.org/2000/svg">
<path fill-rule="evenodd" clip-rule="evenodd" d="M9.71078 2.12564C10.5261 1.73595 11.4739 1.73595 12.2892 2.12564C12.6434 2.29493 12.9679 2.57176 13.4173 2.95507C13.4406 2.97497 13.4643 2.99515 13.4883 3.01562C13.7066 3.20161 13.7753 3.25879 13.8448 3.30541C14.0217 3.42396 14.2204 3.50625 14.4293 3.54749C14.5114 3.56371 14.6005 3.57187 14.8863 3.59468C14.9178 3.59719 14.9488 3.59965 14.9793 3.60208C15.5681 3.6488 15.9934 3.68254 16.3635 3.81329C17.2156 4.11424 17.8858 4.78444 18.1867 5.63649C18.3175 6.00665 18.3512 6.43189 18.3979 7.0207C18.4004 7.05127 18.4028 7.08227 18.4053 7.11373C18.4282 7.39956 18.4363 7.4886 18.4525 7.57073C18.4938 7.77964 18.5761 7.9783 18.6946 8.15518C18.7412 8.22473 18.7984 8.29346 18.9844 8.5117C19.0049 8.53573 19.0251 8.5594 19.045 8.58273C19.4283 9.03211 19.7051 9.35665 19.8744 9.71084C20.2641 10.5261 20.2641 11.4739 19.8744 12.2892C19.7051 12.6434 19.4283 12.968 19.045 13.4174C19.0251 13.4407 19.0049 13.4644 18.9844 13.4884C18.7984 13.7066 18.7412 13.7754 18.6946 13.8449C18.5761 14.0218 18.4938 14.2204 18.4525 14.4294C18.4363 14.5115 18.4282 14.6005 18.4053 14.8864C18.4028 14.9178 18.4004 14.9488 18.3979 14.9794C18.3512 15.5682 18.3175 15.9934 18.1867 16.3636C17.8858 17.2156 17.2156 17.8858 16.3635 18.1868C15.9934 18.3175 15.5681 18.3513 14.9793 18.398C14.9488 18.4004 14.9178 18.4029 14.8863 18.4054C14.6005 18.4282 14.5114 18.4364 14.4293 18.4526C14.2204 18.4938 14.0217 18.5761 13.8448 18.6947C13.7753 18.7413 13.7066 18.7985 13.4883 18.9845C13.4643 19.0049 13.4406 19.0251 13.4173 19.045C12.9679 19.4283 12.6434 19.7052 12.2892 19.8744C11.4739 20.2641 10.5261 20.2641 9.71078 19.8744C9.35659 19.7052 9.03203 19.4283 8.58264 19.045C8.55932 19.0251 8.53566 19.0049 8.51164 18.9845C8.2934 18.7985 8.22467 18.7413 8.15512 18.6947C7.97823 18.5761 7.77958 18.4938 7.57067 18.4526C7.48853 18.4364 7.3995 18.4282 7.11367 18.4054C7.08221 18.4029 7.0512 18.4004 7.02064 18.398C6.43183 18.3513 6.00659 18.3175 5.63643 18.1868C4.78438 17.8858 4.11418 17.2156 3.81323 16.3636C3.68248 15.9934 3.64874 15.5682 3.60202 14.9794C3.59959 14.9488 3.59713 14.9178 3.59462 14.8864C3.57181 14.6005 3.56365 14.5115 3.54743 14.4294C3.50619 14.2204 3.4239 14.0218 3.30534 13.8449C3.25873 13.7754 3.20155 13.7066 3.01556 13.4884C2.99509 13.4644 2.97491 13.4407 2.95502 13.4174C2.5717 12.968 2.29487 12.6434 2.12558 12.2892C1.73589 11.4739 1.73589 10.5261 2.12558 9.71084C2.29487 9.35665 2.5717 9.0321 2.95501 8.58271C2.97491 8.55939 2.99509 8.53572 3.01556 8.5117C3.20155 8.29346 3.25873 8.22473 3.30534 8.15518C3.4239 7.9783 3.50619 7.77964 3.54743 7.57073C3.56365 7.4886 3.57181 7.39956 3.59462 7.11373C3.59713 7.08227 3.59959 7.05127 3.60202 7.0207C3.64874 6.43189 3.68248 6.00665 3.81323 5.63649C4.11418 4.78444 4.78438 4.11424 5.63643 3.81329C6.00659 3.68254 6.43183 3.6488 7.02064 3.60208C7.0512 3.59965 7.08221 3.59719 7.11367 3.59468C7.3995 3.57187 7.48853 3.56371 7.57067 3.54749C7.77958 3.50625 7.97823 3.42396 8.15512 3.30541C8.22467 3.25879 8.2934 3.20161 8.51164 3.01562C8.53566 2.99515 8.55932 2.97497 8.58265 2.95507C9.03204 2.57176 9.35659 2.29493 9.71078 2.12564ZM11.6942 3.37053C11.2552 3.1607 10.7448 3.1607 10.3058 3.37053C10.1361 3.45165 9.95717 3.5966 9.40659 4.06579C9.39755 4.0735 9.38863 4.08111 9.37982 4.08861C9.19914 4.24265 9.06724 4.3551 8.92333 4.45156C8.59482 4.67173 8.2259 4.82455 7.83792 4.90115C7.66795 4.9347 7.49517 4.94846 7.25848 4.9673C7.24695 4.96822 7.23527 4.96915 7.22342 4.97009C6.50234 5.02763 6.27334 5.05165 6.09596 5.1143C5.63717 5.27635 5.27629 5.63723 5.11424 6.09602C5.05159 6.2734 5.02757 6.5024 4.97003 7.22349C4.96909 7.23533 4.96816 7.24701 4.96724 7.25854C4.9484 7.49523 4.93464 7.66801 4.90108 7.83798C4.82449 8.22596 4.67167 8.59488 4.45149 8.92339C4.35503 9.0673 4.24259 9.1992 4.08855 9.37989C4.08104 9.38869 4.07344 9.39761 4.06573 9.40665C3.59654 9.95723 3.45159 10.1361 3.37047 10.3059C3.16064 10.7449 3.16064 11.2552 3.37047 11.6942C3.45159 11.864 3.59654 12.0429 4.06573 12.5934C4.07344 12.6025 4.08105 12.6114 4.08855 12.6202C4.24259 12.8009 4.35504 12.9328 4.45149 13.0767C4.67167 13.4052 4.82449 13.7741 4.90108 14.1621C4.93464 14.3321 4.9484 14.5048 4.96724 14.7415C4.96816 14.7531 4.96909 14.7648 4.97003 14.7766C5.02757 15.4977 5.05159 15.7267 5.11424 15.9041C5.27629 16.3629 5.63717 16.7237 6.09596 16.8858C6.27334 16.9484 6.50234 16.9724 7.22342 17.03L7.25848 17.0328C7.49517 17.0516 7.66795 17.0654 7.83792 17.0989C8.2259 17.1755 8.59482 17.3283 8.92333 17.5485C9.06724 17.645 9.19914 17.7574 9.37983 17.9115L9.40659 17.9343C9.95717 18.4035 10.1361 18.5484 10.3058 18.6296C10.7448 18.8394 11.2552 18.8394 11.6942 18.6296C11.8639 18.5484 12.0428 18.4035 12.5934 17.9343L12.6201 17.9115C12.8008 17.7574 12.9327 17.645 13.0766 17.5485C13.4051 17.3283 13.7741 17.1755 14.162 17.0989C14.332 17.0654 14.5048 17.0516 14.7415 17.0328L14.7765 17.03C15.4976 16.9724 15.7266 16.9484 15.904 16.8858C16.3628 16.7237 16.7237 16.3629 16.8857 15.9041C16.9484 15.7267 16.9724 15.4977 17.0299 14.7766L17.0327 14.7415C17.0516 14.5048 17.0653 14.3321 17.0989 14.1621C17.1755 13.7741 17.3283 13.4052 17.5485 13.0767C17.6449 12.9328 17.7574 12.8009 17.9114 12.6202L17.9342 12.5934C18.4034 12.0429 18.5484 11.864 18.6295 11.6942C18.8393 11.2552 18.8393 10.7449 18.6295 10.3059C18.5484 10.1361 18.4034 9.95723 17.9342 9.40665L17.9114 9.37987C17.7574 9.19919 17.6449 9.0673 17.5485 8.92339C17.3283 8.59488 17.1755 8.22596 17.0989 7.83798C17.0653 7.66801 17.0516 7.49524 17.0327 7.25854L17.0299 7.22349C16.9724 6.5024 16.9484 6.2734 16.8857 6.09602C16.7237 5.63723 16.3628 5.27635 15.904 5.1143C15.7266 5.05165 15.4976 5.02763 14.7765 4.97009C14.7647 4.96915 14.753 4.96822 14.7415 4.9673C14.5048 4.94846 14.332 4.9347 14.162 4.90115C13.7741 4.82455 13.4051 4.67173 13.0766 4.45156C12.9327 4.35509 12.8008 4.24265 12.6201 4.08861C12.6113 4.0811 12.6024 4.0735 12.5934 4.06579C12.0428 3.5966 11.8639 3.45165 11.6942 3.37053Z" fill="#0E172E"/>
<path fill-rule="evenodd" clip-rule="evenodd" d="M14.2474 7.75265C14.5168 8.02207 14.5168 8.45889 14.2474 8.7283L8.72824 14.2474C8.45882 14.5169 8.02201 14.5169 7.75259 14.2474C7.48317 13.978 7.48317 13.5412 7.75259 13.2718L13.2717 7.75265C13.5411 7.48323 13.978 7.48323 14.2474 7.75265Z" fill="#0E172E"/>
<path d="M14.2195 13.2997C14.2195 13.8077 13.8076 14.2195 13.2996 14.2195C12.7916 14.2195 12.3798 13.8077 12.3798 13.2997C12.3798 12.7917 12.7916 12.3798 13.2996 12.3798C13.8076 12.3798 14.2195 12.7917 14.2195 13.2997Z" fill="#0E172E"/>
<path d="M9.6202 8.7004C9.6202 9.20843 9.20837 9.62026 8.70034 9.62026C8.19232 9.62026 7.78049 9.20843 7.78049 8.7004C7.78049 8.19238 8.19232 7.78055 8.70034 7.78055C9.20837 7.78055 9.6202 8.19238 9.6202 8.7004Z" fill="#0E172E"/>
</svg>
