<svg width="22" height="22" viewBox="0 0 22 22" fill="none" xmlns="http://www.w3.org/2000/svg">
<path fill-rule="evenodd" clip-rule="evenodd" d="M7.99644 1.88023C9.32004 1.42691 10.1406 1.14587 11 1.14587C11.8594 1.14587 12.68 1.42691 14.0036 1.88023L14.6704 2.1085C16.0283 2.5733 17.0762 2.93202 17.8264 3.23678C18.2043 3.3903 18.5292 3.53899 18.7908 3.69091C19.0425 3.83712 19.2951 4.01948 19.4667 4.26395C19.6363 4.50561 19.724 4.80268 19.7791 5.08866C19.8364 5.38597 19.8709 5.74262 19.8932 6.15212C19.9375 6.96524 19.9375 8.07918 19.9375 9.52404V10.9921C19.9375 16.5847 15.7135 19.2661 13.2015 20.3634L13.1767 20.3742C12.8652 20.5103 12.5724 20.6383 12.236 20.7244C11.8809 20.8153 11.5035 20.8542 11 20.8542C10.4965 20.8542 10.1191 20.8153 9.76397 20.7244C9.42756 20.6383 9.13479 20.5103 8.82331 20.3742L8.79847 20.3634C6.28653 19.2661 2.0625 16.5847 2.0625 10.9921V9.52412C2.0625 8.07934 2.0625 6.96521 2.10677 6.15212C2.12907 5.74262 2.16362 5.38597 2.22091 5.08866C2.27602 4.80268 2.36372 4.50561 2.53333 4.26395C2.70492 4.01948 2.95748 3.83712 3.20923 3.69091C3.47084 3.53899 3.79572 3.3903 4.17361 3.23678C4.92379 2.93202 5.97173 2.57331 7.32962 2.1085L7.99644 1.88023ZM10.3125 2.60146C9.8565 2.70058 9.27227 2.89685 8.3239 3.22148L7.79882 3.40122C6.41227 3.87583 5.40109 4.22225 4.69113 4.51067C4.33675 4.65463 4.07999 4.77528 3.89976 4.87994C3.81079 4.93162 3.74948 4.97426 3.70853 5.00754C3.67381 5.03576 3.66058 5.05174 3.65868 5.05407C3.65691 5.05695 3.64552 5.07599 3.62948 5.12103C3.61116 5.17247 3.59085 5.2462 3.57107 5.34884C3.53104 5.55659 3.5007 5.84197 3.47974 6.22688C3.44184 6.92295 3.43794 7.86777 3.43755 9.1295L10.3125 6.83785V2.60146ZM11.6875 2.60146V6.83785L18.5625 9.1295C18.5621 7.86777 18.5582 6.92295 18.5203 6.22688C18.4993 5.84197 18.469 5.55659 18.4289 5.34884C18.4091 5.2462 18.3888 5.17247 18.3705 5.12103C18.3545 5.07596 18.3431 5.05692 18.3413 5.05407C18.3394 5.05171 18.3262 5.03574 18.2915 5.00754C18.2505 4.97426 18.1892 4.93162 18.1002 4.87994C17.92 4.77528 17.6632 4.65463 17.3089 4.51067C16.5989 4.22225 15.5877 3.87583 14.2012 3.40122L13.6761 3.22148C12.7277 2.89685 12.1435 2.70058 11.6875 2.60146ZM10.3125 8.28723L3.4375 10.5789V10.9921C3.4375 15.736 6.9849 18.0707 9.34889 19.1034C9.68941 19.2521 9.88606 19.3363 10.105 19.3924C10.1687 19.4087 10.2366 19.4231 10.3125 19.4353V8.28723ZM11.6875 19.4353V8.28723L18.5625 10.5789V10.9921C18.5625 15.736 15.0151 18.0707 12.6511 19.1034C12.3106 19.2521 12.1139 19.3363 11.895 19.3924C11.8314 19.4087 11.7634 19.4231 11.6875 19.4353Z" fill="#0E172E"/>
</svg>
