
<svg width="28" height="28" viewBox="0 0 28 28" fill="none" xmlns="http://www.w3.org/2000/svg">
<path fill-rule="evenodd" clip-rule="evenodd" d="M4.04192 4.04192C2.33337 5.75046 2.33337 8.50032 2.33337 14C2.33337 19.4998 2.33337 22.2496 4.04192 23.9582C5.75046 25.6667 8.50032 25.6667 14 25.6667C19.4998 25.6667 22.2496 25.6667 23.9582 23.9582C25.6667 22.2496 25.6667 19.4998 25.6667 14C25.6667 8.50032 25.6667 5.75046 23.9582 4.04192C22.2496 2.33337 19.4998 2.33337 14 2.33337C8.50032 2.33337 5.75046 2.33337 4.04192 4.04192ZM18.1188 9.88132C18.4605 10.223 18.4605 10.7771 18.1188 11.1188L11.1188 18.1188C10.7771 18.4605 10.223 18.4605 9.88132 18.1188C9.53961 17.7771 9.53961 17.223 9.88132 16.8813L16.8813 9.88132C17.223 9.53961 17.7771 9.53961 18.1188 9.88132ZM12.25 11.0834C12.25 11.7277 11.7277 12.25 11.0834 12.25C10.439 12.25 9.91671 11.7277 9.91671 11.0834C9.91671 10.439 10.439 9.91671 11.0834 9.91671C11.7277 9.91671 12.25 10.439 12.25 11.0834ZM16.9167 18.0834C17.561 18.0834 18.0834 17.561 18.0834 16.9167C18.0834 16.2724 17.561 15.75 16.9167 15.75C16.2724 15.75 15.75 16.2724 15.75 16.9167C15.75 17.561 16.2724 18.0834 16.9167 18.0834Z" fill="#A2A2A2"/>
</svg>
