<svg width="22" height="22" viewBox="0 0 22 22" fill="none" xmlns="http://www.w3.org/2000/svg">
<path fill-rule="evenodd" clip-rule="evenodd" d="M11 1.14587C8.59528 1.14587 6.64585 3.0953 6.64585 5.50004C6.64585 7.90478 8.59528 9.85421 11 9.85421C13.4048 9.85421 15.3542 7.90478 15.3542 5.50004C15.3542 3.0953 13.4048 1.14587 11 1.14587ZM8.02085 5.50004C8.02085 3.85469 9.35467 2.52087 11 2.52087C12.6454 2.52087 13.9792 3.85469 13.9792 5.50004C13.9792 7.14539 12.6454 8.47921 11 8.47921C9.35467 8.47921 8.02085 7.14539 8.02085 5.50004Z" fill="#0E172E"/>
<path fill-rule="evenodd" clip-rule="evenodd" d="M11 11.2292C8.87927 11.2292 6.92537 11.7113 5.47752 12.5257C4.05121 13.328 2.97919 14.5439 2.97919 16.0417L2.97913 16.1352C2.97809 17.2002 2.97679 18.5369 4.14923 19.4916C4.72625 19.9615 5.53346 20.2956 6.62405 20.5164C7.71768 20.7377 9.14306 20.8542 11 20.8542C12.857 20.8542 14.2824 20.7377 15.376 20.5164C16.4666 20.2956 17.2738 19.9615 17.8508 19.4916C19.0233 18.5369 19.0219 17.2002 19.0209 16.1352L19.0209 16.0417C19.0209 14.5439 17.9488 13.328 16.5225 12.5257C15.0747 11.7113 13.1208 11.2292 11 11.2292ZM4.35419 16.0417C4.35419 15.2613 4.92378 14.4148 6.15163 13.7241C7.35792 13.0456 9.07069 12.6042 11 12.6042C12.9294 12.6042 14.6421 13.0456 15.8484 13.7241C17.0763 14.4148 17.6459 15.2613 17.6459 16.0417C17.6459 17.2405 17.6089 17.9154 16.9826 18.4254C16.6429 18.702 16.0751 18.972 15.1032 19.1687C14.1343 19.3648 12.8097 19.4792 11 19.4792C9.19031 19.4792 7.8657 19.3648 6.89683 19.1687C5.92492 18.972 5.35713 18.702 5.01748 18.4254C4.39114 17.9154 4.35419 17.2405 4.35419 16.0417Z" fill="#0E172E"/>
</svg>
