<svg width="47" height="47" viewBox="0 0 47 47" fill="none" xmlns="http://www.w3.org/2000/svg">
<path fill-rule="evenodd" clip-rule="evenodd" d="M26.8246 6.01857C26.4516 4.52967 25.1046 3.427 23.5001 3.427C21.8957 3.427 20.5488 4.52944 20.1757 6.01811C20.1114 6.05073 20.0475 6.08436 19.984 6.119L10.5953 11.2384C10.4335 11.3267 10.2758 11.4205 10.1225 11.5196C9.71896 11.3525 9.27654 11.2603 8.81258 11.2603C6.91986 11.2603 5.3855 12.7947 5.3855 14.6874C5.3855 15.8154 5.9304 16.816 6.77132 17.4405C6.7686 17.5221 6.76723 17.6039 6.76723 17.686V27.3555C6.76723 27.7482 6.79858 28.1363 6.85947 28.5168C5.96867 29.1357 5.3855 30.1664 5.3855 31.3333C5.3855 33.226 6.91986 34.7603 8.81258 34.7603C9.62638 34.7603 10.3739 34.4767 10.9618 34.0029L13.5227 35.3992L9.50006 42.3474C9.09364 43.0494 9.33325 43.9479 10.0353 44.3543C10.7373 44.7608 11.6358 44.5212 12.0423 43.8192L16.1025 36.806L19.984 38.9225C20.0475 38.9571 20.1114 38.9907 20.1757 39.0233C20.5488 40.512 21.8957 41.6145 23.5001 41.6145C25.1046 41.6145 26.4516 40.5118 26.8246 39.0229C26.8886 38.9904 26.9522 38.9569 27.0154 38.9225L30.8978 36.8054L34.9584 43.8192C35.3648 44.5212 36.2634 44.7608 36.9654 44.3543C37.6674 43.9479 37.907 43.0494 37.5006 42.3474L33.4777 35.3987L36.0381 34.0026C36.626 34.4766 37.3736 34.7603 38.1876 34.7603C40.0803 34.7603 41.6147 33.226 41.6147 31.3333C41.6147 30.1661 41.0312 29.1352 40.14 28.5163C40.2008 28.136 40.2321 27.748 40.2321 27.3555V17.686C40.2321 17.6041 40.2308 17.5225 40.2281 17.4411C41.0694 16.8166 41.6147 15.8157 41.6147 14.6874C41.6147 12.7947 40.0803 11.2603 38.1876 11.2603C37.7234 11.2603 37.2808 11.3526 36.8771 11.5198C36.7238 11.4206 36.566 11.3267 36.4041 11.2384L27.0154 6.119C26.9521 6.08453 26.8886 6.05106 26.8246 6.01857ZM20.8305 9.00325C21.4587 9.78259 22.4212 10.2812 23.5001 10.2812C24.5789 10.2812 25.5412 9.78272 26.1694 9.00356L34.8881 13.7576C34.805 14.0533 34.7605 14.3652 34.7605 14.6874C34.7605 16.2712 35.8349 17.6041 37.2946 17.997V27.3555C37.2946 27.5864 37.2766 27.8146 37.2415 28.0384C35.8089 28.449 34.7605 29.7687 34.7605 31.3333C34.7605 31.34 34.7605 31.3467 34.7606 31.3534L32.0054 32.8557L26.7345 23.7514C27.1651 23.1224 27.417 22.3614 27.417 21.5416C27.417 19.3785 25.6634 17.6249 23.5003 17.6249C21.3372 17.6249 19.5837 19.3785 19.5837 21.5416C19.5837 22.3614 19.8355 23.1224 20.2661 23.7514L14.9949 32.8562L12.2396 31.3538C12.2396 31.347 12.2397 31.3401 12.2397 31.3333C12.2397 29.7684 11.1909 28.4485 9.75785 28.0382C9.72278 27.8144 9.70473 27.5863 9.70473 27.3555V17.9972C11.1649 17.6046 12.2397 16.2715 12.2397 14.6874C12.2397 14.365 12.1951 14.053 12.1119 13.7573L20.8305 9.00325ZM17.5748 34.263L20.8305 36.0382C21.4587 35.2589 22.4212 34.7603 23.5001 34.7603C24.5789 34.7603 25.5412 35.2588 26.1694 36.0379L29.4256 34.2624L24.2831 25.38C24.0302 25.4313 23.7684 25.4583 23.5003 25.4583C23.2323 25.4583 22.9705 25.4313 22.7175 25.38L17.5748 34.263Z" fill="white"/>
</svg>
