<svg width="300" height="300" viewBox="0 0 300 300" fill="none" xmlns="http://www.w3.org/2000/svg">
<rect width="300" height="300" fill="white"/>
<path d="M34.2963 43.1525C41.2704 37.922 48.6547 38.0246 48.6547 38.0246L263.004 44.1781C263.004 44.1781 276.337 45.2037 280.44 52.3829C284.542 59.5621 285.568 64.6901 285.568 68.7925C285.568 72.8949 268.132 246.221 268.132 246.221C268.132 246.221 264.03 254.426 259.928 257.502C255.825 260.579 251.723 262.63 244.544 261.605C237.365 260.579 43.4523 223.544 28.1429 219.794C18.7023 217.482 13.9256 206.999 14.9512 198.794C15.9768 190.589 28.1427 63.6645 28.1427 63.6645C28.1427 63.6645 30.1939 46.2293 34.2963 43.1525Z" fill="white"/>
<path d="M63.6286 38.8449L263.415 44.178C276.645 44.4857 286.491 55.357 285.26 68.3821L268.235 243.349C267.005 255.964 255.518 264.066 242.698 261.502L28.8612 219.794C20.0411 218.05 13.6824 208.41 14.5029 198.154L28.8608 56.8954C29.5788 46.4343 37.4759 38.127 46.5011 38.3321L53.1675 38.5372" stroke="black" stroke-width="3" stroke-miterlimit="10" stroke-linecap="round" stroke-linejoin="round"/>
<path d="M33.373 66.2289L203.314 75.2541L206.289 42.6401" stroke="black" stroke-width="2.3" stroke-miterlimit="10" stroke-linecap="round" stroke-linejoin="round"/>
<path d="M26.2969 90.5354L222.494 105.509" stroke="black" stroke-width="2.3" stroke-miterlimit="10" stroke-linecap="round" stroke-linejoin="round"/>
<path d="M48.1426 159.866L95.4226 166.43" stroke="black" stroke-width="2.3" stroke-miterlimit="10" stroke-linecap="round" stroke-linejoin="round"/>
<path d="M46.3984 182.736L116.242 193.915" stroke="black" stroke-width="2.3" stroke-miterlimit="10" stroke-linecap="round" stroke-linejoin="round"/>
<path d="M189.265 229.914L187.932 244.682" stroke="black" stroke-width="2.3" stroke-miterlimit="10" stroke-linecap="round" stroke-linejoin="round"/>
<path d="M200.136 110.329L196.444 150.943" stroke="black" stroke-width="2.25" stroke-miterlimit="10" stroke-linecap="round" stroke-linejoin="round"/>
<path d="M237.057 155.559L241.672 106.945L268.542 108.997" stroke="black" stroke-width="2.3" stroke-miterlimit="10" stroke-linecap="round" stroke-linejoin="round"/>
<path d="M227.93 252.375L229.16 239.965" stroke="black" stroke-width="2.3" stroke-miterlimit="10" stroke-linecap="round" stroke-linejoin="round"/>
<path d="M246.595 54.5369L244.441 77.4077L284.132 79.4589" stroke="black" stroke-width="2.3" stroke-miterlimit="10" stroke-linecap="round" stroke-linejoin="round"/>
<path d="M255.107 182.941C255.107 180.582 253.979 178.018 252.236 176.377C246.492 171.147 227.416 155.968 221.057 151.866C219.929 151.148 218.596 150.635 217.16 150.532C215.827 150.43 214.391 150.532 213.16 151.045C206.289 153.712 186.29 163.66 180.341 167.147C178.495 168.275 177.059 170.326 176.752 172.48C175.623 179.249 173.777 201.094 173.675 207.966C173.675 210.017 174.7 212.376 176.239 213.812C181.367 218.529 198.597 232.785 204.75 236.99C205.981 237.811 207.52 238.426 209.058 238.631C210.596 238.939 212.135 239.041 213.571 238.631C220.442 236.785 240.954 228.888 247.415 225.811C249.364 224.888 251.005 222.939 251.415 220.786C252.646 213.504 254.902 190.325 255.107 182.941ZM245.877 216.888C245.569 218.735 244.133 220.478 242.39 221.299C240.646 222.119 237.775 223.35 234.39 224.683C233.672 224.991 232.954 224.888 232.236 224.478C227.724 221.811 223.416 219.042 220.442 216.581C219.827 216.068 219.724 214.017 220.339 211.966C220.339 211.966 220.339 211.966 220.339 211.863C220.545 211.043 221.16 210.427 221.878 210.017C224.852 208.376 227.108 205.299 227.929 201.915C228.442 202.53 229.365 202.428 229.98 202.017C232.236 200.581 233.98 198.12 234.595 195.453C234.903 194.325 234.903 193.095 234.493 192.069C233.98 191.043 232.852 190.223 231.724 190.531C232.442 187.454 233.057 184.274 233.159 181.095C233.262 177.711 232.852 172.685 229.16 171.044C228.647 170.839 227.724 170.634 227.724 170.634H227.519C224.852 163.557 213.776 161.916 207.212 163.66C204.443 164.378 201.776 165.711 199.93 167.762C197.879 170.019 196.751 172.993 196.238 176.07C195.725 179.146 195.828 182.223 195.93 185.403C195.007 184.89 193.777 185.3 193.161 186.121C192.546 187.044 192.341 188.172 192.443 189.3C192.546 191.966 193.674 194.838 195.52 196.889C196.033 197.402 196.853 197.812 197.366 197.402C197.571 200.889 199.11 204.376 201.571 206.94C202.186 207.556 202.597 208.376 202.699 209.196V209.299C202.904 211.453 202.392 213.401 201.776 213.607C198.597 214.94 193.879 216.273 189.366 217.401C188.854 217.504 188.238 217.401 187.725 216.991C184.854 214.53 182.392 212.478 180.957 211.145C179.623 209.914 178.7 207.863 178.7 206.12C178.803 200.171 180.444 181.3 181.367 175.352C181.674 173.506 182.905 171.66 184.546 170.737C189.674 167.66 207.109 159.147 212.955 156.891C213.981 156.481 215.211 156.378 216.442 156.481C217.673 156.583 218.801 157.096 219.724 157.712C225.16 161.301 241.467 174.326 246.39 178.941C247.928 180.377 248.954 182.531 248.851 184.582C248.954 190.941 247.005 210.837 245.877 216.888Z" fill="url(#paint0_linear_17616_229)"/>
<defs>
<linearGradient id="paint0_linear_17616_229" x1="214.012" y1="149.283" x2="214.632" y2="239.099" gradientUnits="userSpaceOnUse">
<stop stop-color="#47DE8B" stop-opacity="0.9"/>
<stop offset="1" stop-color="#47DE8B" stop-opacity="0.4"/>
</linearGradient>
</defs>
</svg>
