<svg width="23" height="23" viewBox="0 0 23 23" fill="none" xmlns="http://www.w3.org/2000/svg">
<path fill-rule="evenodd" clip-rule="evenodd" d="M11.5001 1.91675C7.88598 1.91675 6.07893 1.91675 4.95617 3.03951C3.93737 4.0583 3.84304 5.64054 3.83431 8.62508H2.87508C2.34581 8.62508 1.91675 9.05414 1.91675 9.58341V10.5417C1.91675 10.8434 2.05877 11.1274 2.30008 11.3084L3.83341 12.4584C3.84215 15.443 3.93737 17.0252 4.95617 18.044C5.18826 18.2761 5.44959 18.4602 5.75008 18.6062V20.125C5.75008 20.6543 6.17914 21.0833 6.70841 21.0833H8.14591C8.67519 21.0833 9.10425 20.6543 9.10425 20.125V19.149C9.80101 19.1667 10.5937 19.1667 11.5001 19.1667C12.4064 19.1667 13.1991 19.1667 13.8959 19.149V20.125C13.8959 20.6543 14.325 21.0833 14.8542 21.0833H16.2917C16.821 21.0833 17.2501 20.6543 17.2501 20.125V18.6062C17.5506 18.4602 17.8119 18.2761 18.044 18.044C19.0628 17.0252 19.158 15.443 19.1667 12.4584L20.7001 11.3084C20.9414 11.1274 21.0834 10.8434 21.0834 10.5417V9.58341C21.0834 9.05414 20.6544 8.62508 20.1251 8.62508H19.1659C19.1571 5.64054 19.0628 4.0583 18.044 3.03951C16.9212 1.91675 15.1142 1.91675 11.5001 1.91675ZM5.27091 9.10425C5.27091 10.4595 5.27091 11.1372 5.69195 11.5582C6.11298 11.9792 6.79063 11.9792 8.14591 11.9792H11.5001H14.8542C16.2095 11.9792 16.8872 11.9792 17.3082 11.5582C17.7292 11.1372 17.7292 10.4595 17.7292 9.10425V6.70841C17.7292 5.35313 17.7292 4.67548 17.3082 4.25445C16.8872 3.83341 16.2095 3.83341 14.8542 3.83341H11.5001H8.14591C6.79063 3.83341 6.11298 3.83341 5.69195 4.25445C5.27091 4.67548 5.27091 5.35313 5.27091 6.70841V9.10425ZM5.98966 15.3334C5.98966 14.9365 6.31146 14.6147 6.70841 14.6147H8.14591C8.54287 14.6147 8.86466 14.9365 8.86466 15.3334C8.86466 15.7304 8.54287 16.0522 8.14591 16.0522H6.70841C6.31146 16.0522 5.98966 15.7304 5.98966 15.3334ZM17.0105 15.3334C17.0105 14.9365 16.6887 14.6147 16.2917 14.6147H14.8542C14.4573 14.6147 14.1355 14.9365 14.1355 15.3334C14.1355 15.7304 14.4573 16.0522 14.8542 16.0522H16.2917C16.6887 16.0522 17.0105 15.7304 17.0105 15.3334Z" fill="#1A73E8"/>
</svg>
