<svg width="55" height="54" viewBox="0 0 55 54" fill="none" xmlns="http://www.w3.org/2000/svg">
<path d="M51.4194 17.7883C51.2065 15.0247 49.0774 11.4818 46.9482 9.78113C44.5539 8.04071 42.0662 6.43216 39.4962 4.96267C36.9456 3.45327 34.3159 2.08135 31.6183 0.852801C30.1773 0.265915 28.6321 -0.0233448 27.0761 0.0024846C25.5195 -0.0301691 23.9729 0.259348 22.5339 0.852801C19.8368 2.08222 17.2071 3.45412 14.656 4.96267C10.5397 7.44276 7.20399 9.78113 7.20399 9.78113C5.39361 11.2939 4.03701 13.2555 3.2571 15.4494C3.145 15.7648 3.38509 16.0874 3.71977 16.0874H7.41661C7.78677 16.0874 8.12335 15.8808 8.31483 15.5641C8.93189 14.5432 9.72051 13.6229 10.6558 12.8467C10.6558 12.8467 13.41 10.9293 16.8088 8.8956C18.9152 7.65859 21.0864 6.53364 23.3134 5.52551C24.5016 5.03888 25.7785 4.80147 27.0638 4.82825C28.3486 4.80707 29.6244 5.04426 30.8142 5.52551C33.0415 6.53292 35.2128 7.65789 37.3188 8.8956C39.4408 10.1006 41.4949 11.4196 43.4718 12.8467C45.2298 14.2413 46.9878 17.1465 47.1636 19.4126C47.1636 19.4126 47.5738 22.7827 47.6324 26.7745C47.6288 29.2398 47.4919 31.7031 47.2222 34.1538C46.8133 36.7199 45.481 39.0524 43.4718 40.7197C43.4718 40.7197 40.7176 42.6953 37.3188 44.7289C35.2124 45.966 33.0412 47.0909 30.8142 48.099C29.626 48.5857 28.3491 48.8231 27.0638 48.7963C25.7802 48.823 24.5044 48.5918 23.3134 48.1165C21.0861 47.1091 18.9148 45.9841 16.8088 44.7464C13.41 42.7708 10.6558 40.7371 10.6558 40.7371C9.84309 40.0924 9.03035 39.1249 8.36816 38.0468C8.17765 37.7367 7.84505 37.5372 7.48105 37.5372H3.73099C3.39199 37.5372 3.15193 37.8673 3.27418 38.1835C4.11416 40.3558 5.65907 42.5598 7.20399 43.7938C7.20399 43.7938 10.5397 46.2739 14.656 48.6831C17.2066 50.1925 19.8363 51.5644 22.5339 52.793C23.9764 53.3726 25.5215 53.6546 27.0761 53.622C28.6327 53.6547 30.1792 53.3652 31.6183 52.7717C34.3154 51.5423 36.9451 50.1704 39.4962 48.6619C43.6125 46.1818 46.9482 43.7725 46.9482 43.7725C49.3816 41.7392 50.9952 38.8948 51.4904 35.7654C51.817 32.7767 51.9828 29.7726 51.9872 26.7662C51.9162 21.8981 51.4194 17.7883 51.4194 17.7883Z" fill="url(#paint0_linear_16_615)"/>
<path d="M2.16516 20.9162C2.16516 20.3239 2.64984 19.8438 3.24772 19.8438H20.0273C20.6252 19.8438 21.1099 20.3239 21.1099 20.9162V24.1337C21.1099 24.726 20.6252 25.2062 20.0273 25.2062H2.16516V20.9162Z" fill="#0066B3"/>
<path d="M2.16492 28.4233H36.2654C36.8633 28.4233 37.348 28.9035 37.348 29.4958V32.7133C37.348 33.3056 36.8633 33.7858 36.2654 33.7858H3.24747C2.64959 33.7858 2.16492 33.3056 2.16492 32.7133V28.4233Z" fill="#EE2F53"/>
<defs>
<linearGradient id="paint0_linear_16_615" x1="27.5162" y1="0" x2="27.5162" y2="53.6246" gradientUnits="userSpaceOnUse">
<stop stop-color="#0066B3"/>
<stop offset="0.354167" stop-color="#0066B3"/>
<stop offset="0.6875" stop-color="#EE2F53"/>
<stop offset="1" stop-color="#EE2F53"/>
</linearGradient>
</defs>
</svg>
