
<svg width="28" height="28" viewBox="0 0 28 28" fill="none" xmlns="http://www.w3.org/2000/svg">
<path fill-rule="evenodd" clip-rule="evenodd" d="M2.72463 9.18736C2.0941 10.5026 2.31544 12.0409 2.75812 15.1174L3.08335 17.3777C3.652 21.3297 3.93633 23.3057 5.30724 24.4861C6.67815 25.6666 8.68864 25.6666 12.7096 25.6666H15.2905C19.3114 25.6666 21.3219 25.6666 22.6928 24.4861C24.0638 23.3057 24.3481 21.3297 24.9167 17.3777L25.242 15.1174C25.6846 12.0409 25.906 10.5026 25.2754 9.18736C24.6449 7.87212 23.3028 7.07265 20.6186 5.4737L19.003 4.51127C16.5655 3.05926 15.3467 2.33325 14 2.33325C12.6533 2.33325 11.4346 3.05926 8.99708 4.51127L7.38144 5.4737C4.69726 7.07265 3.35517 7.87212 2.72463 9.18736ZM9.62516 20.9997C9.62516 20.5164 10.0169 20.1247 10.5002 20.1247H17.5002C17.9834 20.1247 18.3752 20.5164 18.3752 20.9997C18.3752 21.4829 17.9834 21.8747 17.5002 21.8747H10.5002C10.0169 21.8747 9.62516 21.4829 9.62516 20.9997Z" fill="#A2A2A2"/>
</svg>
