
<svg width="34" height="35" viewBox="0 0 34 35" fill="none" xmlns="http://www.w3.org/2000/svg">
<path fill-rule="evenodd" clip-rule="evenodd" d="M7.91667 11.25C7.91667 6.41751 11.8342 2.5 16.6667 2.5C20.7421 2.5 24.1697 5.28737 25.1411 9.06157C25.3132 9.73014 25.9946 10.1326 26.6632 9.96055C27.3318 9.78847 27.7342 9.10699 27.5622 8.43843C26.3134 3.58649 21.9104 0 16.6667 0C10.4535 0 5.41667 5.0368 5.41667 11.25V14.6743C3.55874 14.8131 2.34885 15.1634 1.46447 16.0478C0 17.5123 0 19.8693 0 24.5833C0 29.2974 0 31.6544 1.46447 33.1189C2.92893 34.5833 5.28595 34.5833 10 34.5833H23.3333C28.0474 34.5833 30.4044 34.5833 31.8689 33.1189C33.3333 31.6544 33.3333 29.2974 33.3333 24.5833C33.3333 19.8693 33.3333 17.5123 31.8689 16.0478C30.4044 14.5833 28.0474 14.5833 23.3333 14.5833H10C9.24748 14.5833 8.55502 14.5833 7.91667 14.5893V11.25ZM20 24.5833C20 26.4243 18.5076 27.9167 16.6667 27.9167C14.8257 27.9167 13.3333 26.4243 13.3333 24.5833C13.3333 22.7424 14.8257 21.25 16.6667 21.25C18.5076 21.25 20 22.7424 20 24.5833Z" fill="white"/>
</svg>
