
<svg width="28" height="28" viewBox="0 0 28 28" fill="none" xmlns="http://www.w3.org/2000/svg">
<path d="M15.7502 13.125H12.5418V9.56671C12.5418 9.45358 12.5419 9.38624 12.5433 9.33547C12.5442 9.30326 12.5454 9.28926 12.5457 9.28589C12.5661 9.16259 12.6627 9.06594 12.786 9.0456C12.7894 9.04527 12.8034 9.04406 12.8356 9.04317C12.8864 9.04178 12.9537 9.04171 13.0668 9.04171H15.7502C16.8777 9.04171 17.7918 9.95579 17.7918 11.0834C17.7918 12.211 16.8777 13.125 15.7502 13.125Z" fill="#A2A2A2"/>
<path fill-rule="evenodd" clip-rule="evenodd" d="M25.6668 14C25.6668 20.4434 20.4435 25.6667 14.0002 25.6667C7.55684 25.6667 2.3335 20.4434 2.3335 14C2.3335 7.55672 7.55684 2.33337 14.0002 2.33337C20.4435 2.33337 25.6668 7.55672 25.6668 14ZM9.62516 16.3334C9.62516 15.8501 10.0169 15.4584 10.5002 15.4584H10.7918V14.875H10.5002C10.0169 14.875 9.62516 14.4833 9.62516 14C9.62516 13.5168 10.0169 13.125 10.5002 13.125H10.7918L10.7918 9.5218C10.7916 9.35202 10.7914 9.17554 10.817 9.01399C10.9553 8.14037 11.6405 7.45521 12.5141 7.31684C12.6757 7.29126 12.8521 7.29147 13.0219 7.29167L15.7502 7.29171C17.8442 7.29171 19.5418 8.98929 19.5418 11.0834C19.5418 13.1775 17.8442 14.875 15.7502 14.875H12.5418V15.4584H14.0002C14.4834 15.4584 14.8752 15.8501 14.8752 16.3334C14.8752 16.8166 14.4834 17.2084 14.0002 17.2084H12.5418V19.8334C12.5418 20.3166 12.1501 20.7084 11.6668 20.7084C11.1836 20.7084 10.7918 20.3166 10.7918 19.8334V17.2084H10.5002C10.0169 17.2084 9.62516 16.8166 9.62516 16.3334Z" fill="#A2A2A2"/>
</svg>
