<svg width="19" height="19" viewBox="0 0 19 19" fill="none" xmlns="http://www.w3.org/2000/svg">
<path d="M16.792 3.69084C17.2373 4.27431 17.6143 4.90819 17.9153 5.57977L9.37638 11.959L5.80772 9.69187V6.96438L9.37638 9.23152L16.792 3.69084Z" fill="black"/>
<path d="M2.16565 9.49974C2.16565 9.37735 2.1686 9.25578 2.17449 9.1349L0.0117785 9.02749C0.00441733 9.18415 2.61353e-06 9.34232 2.61353e-06 9.50195C-0.000917559 10.7492 0.241152 11.9843 0.712331 13.1365C1.18351 14.2887 1.87451 15.3353 2.74571 16.2161L4.27978 14.6622C3.60916 13.9853 3.07715 13.1807 2.71434 12.2948C2.35153 11.4088 2.16506 10.4589 2.16565 9.49974Z" fill="black"/>
<path d="M9.37444 2.19465C9.49514 2.19465 9.61509 2.19913 9.73435 2.20509L9.84256 0.0125366C9.68753 0.00507639 9.53145 0.00134673 9.37444 0.00134673C8.14316 -0.000174967 6.92379 0.244798 5.78624 0.722199C4.64869 1.1996 3.6154 1.90003 2.74569 2.78327L4.27976 4.33797C4.9477 3.65811 5.74166 3.11875 6.61599 2.75092C7.49032 2.3831 8.42773 2.19404 9.37444 2.19465Z" fill="black"/>
<path d="M9.37446 16.8054C9.25376 16.8054 9.13375 16.8054 9.0138 16.7957L8.90558 18.9876C9.06114 18.9955 9.21745 18.9995 9.37446 18.9995C10.6052 19.0008 11.824 18.7557 12.9609 18.2781C14.0979 17.8006 15.1305 17.1001 15.9996 16.2168L14.4684 14.6629C13.8004 15.3424 13.0065 15.8814 12.1323 16.2491C11.2582 16.6168 10.3209 16.8059 9.37446 16.8054Z" fill="black"/>
<path d="M13.438 3.46902L15.2606 2.10752C13.5947 0.74041 11.5152 -0.00379496 9.37162 1.4553e-05V2.19406C10.8232 2.19224 12.241 2.6368 13.438 3.46902Z" fill="black"/>
<path d="M18.7482 9.50008C18.7494 8.92931 18.7001 8.35954 18.601 7.79766L16.5833 9.30462C16.5833 9.36956 16.5833 9.43444 16.5833 9.50008C16.5838 10.5208 16.3727 11.5303 15.9636 12.4631C15.5545 13.3959 14.9566 14.2311 14.2086 14.9147L15.6639 16.5448C16.6363 15.6551 17.4134 14.5682 17.9447 13.3546C18.4761 12.141 18.7498 10.8278 18.7482 9.50008Z" fill="black"/>
<path d="M9.37446 16.8054C8.36717 16.8058 7.37104 16.5919 6.45053 16.1774C5.53007 15.7628 4.70576 15.1569 4.031 14.399L2.42333 15.8731C3.30112 16.8588 4.37352 17.6465 5.57102 18.1851C6.7685 18.7237 8.0643 19.0011 9.37446 18.9995V16.8054Z" fill="black"/>
<path d="M4.54037 4.08504L3.0858 2.45498C2.11308 3.34452 1.33571 4.43133 0.804103 5.64494C0.272506 6.85853 -0.00144932 8.17183 5.7661e-06 9.49965L2.16565 9.49974C2.16521 8.47903 2.37638 7.46944 2.78546 6.53667C3.19454 5.60393 3.79242 4.76867 4.54037 4.08504Z" fill="black"/>
</svg>
