
<svg width="28" height="28" viewBox="0 0 28 28" fill="none" xmlns="http://www.w3.org/2000/svg">
<path fill-rule="evenodd" clip-rule="evenodd" d="M4.86683 3.70021C3.5 5.06704 3.5 7.26693 3.5 11.6667V16.3334C3.5 20.7332 3.5 22.933 4.86683 24.2999C6.23367 25.6667 8.43356 25.6667 12.8333 25.6667H15.1667C19.5664 25.6667 21.7663 25.6667 23.1332 24.2999C24.5 22.933 24.5 20.7332 24.5 16.3334V11.6667C24.5 7.26693 24.5 5.06704 23.1332 3.70021C21.7663 2.33337 19.5664 2.33337 15.1667 2.33337H12.8333C8.43356 2.33337 6.23367 2.33337 4.86683 3.70021ZM9.33333 10.7917C8.85008 10.7917 8.45833 11.1835 8.45833 11.6667C8.45833 12.15 8.85008 12.5417 9.33333 12.5417H18.6667C19.1499 12.5417 19.5417 12.15 19.5417 11.6667C19.5417 11.1835 19.1499 10.7917 18.6667 10.7917H9.33333ZM9.33333 15.4584C8.85008 15.4584 8.45833 15.8501 8.45833 16.3334C8.45833 16.8166 8.85008 17.2084 9.33333 17.2084H15.1667C15.6499 17.2084 16.0417 16.8166 16.0417 16.3334C16.0417 15.8501 15.6499 15.4584 15.1667 15.4584H9.33333Z" fill="#A2A2A2"/>
</svg>
