<svg width="18" height="18" viewBox="0 0 18 18" fill="none" xmlns="http://www.w3.org/2000/svg">
<path fill-rule="evenodd" clip-rule="evenodd" d="M2.59835 15.4017C3.6967 16.5 5.46447 16.5 9 16.5C12.5355 16.5 14.3033 16.5 15.4017 15.4017C16.5 14.3033 16.5 12.5355 16.5 9C16.5 5.46447 16.5 3.6967 15.4017 2.59835C14.3033 1.5 12.5355 1.5 9 1.5C5.46447 1.5 3.6967 1.5 2.59835 2.59835C1.5 3.6967 1.5 5.46447 1.5 9C1.5 12.5355 1.5 14.3033 2.59835 15.4017ZM5.4375 9C5.4375 8.68934 5.68934 8.4375 6 8.4375H10.642L9.35225 7.14775C9.13258 6.92808 9.13258 6.57192 9.35225 6.35225C9.57192 6.13258 9.92808 6.13258 10.1477 6.35225L12.3977 8.60225C12.5032 8.70774 12.5625 8.85082 12.5625 9C12.5625 9.14918 12.5032 9.29226 12.3977 9.39775L10.1477 11.6477C9.92808 11.8674 9.57192 11.8674 9.35225 11.6477C9.13258 11.4281 9.13258 11.0719 9.35225 10.8523L10.642 9.5625H6C5.68934 9.5625 5.4375 9.31066 5.4375 9Z" fill="white"/>
</svg>
